<?xml version="1.0" standalone="no"?>
<!DOCTYPE svg PUBLIC "-//W3C//DTD SVG 20010904//EN"
 "http://www.w3.org/TR/2001/REC-SVG-20010904/DTD/svg10.dtd">
<svg version="1.0" xmlns="http://www.w3.org/2000/svg"
 width="254.000000pt" height="248.000000pt" viewBox="0 0 254.000000 248.000000"
 preserveAspectRatio="xMidYMid meet">

<g transform="translate(0.000000,248.000000) scale(0.100000,-0.100000)"
fill="#000000" stroke="none">
<path d="M0 1240 l0 -1240 1270 0 1270 0 0 1240 0 1240 -1270 0 -1270 0 0
-1240z m2090 1162 c170 -62 288 -179 353 -349 21 -58 22 -64 25 -778 2 -497 0
-740 -8 -785 -37 -213 -227 -403 -440 -440 -45 -8 -288 -10 -785 -8 -717 3
-720 3 -779 26 -173 65 -292 187 -347 354 l-24 73 0 735 c0 799 -1 776 58 897
34 72 127 174 192 215 65 40 143 69 209 78 33 4 381 7 771 6 l710 -1 65 -23z"/>
<path d="M520 2286 c-146 -41 -257 -153 -296 -300 -11 -41 -14 -191 -14 -759
0 -689 1 -709 21 -769 45 -133 147 -234 278 -272 48 -14 144 -16 767 -16 685
0 714 1 777 20 123 38 229 144 267 267 19 63 20 92 20 777 0 621 -2 719 -16
767 -33 112 -117 208 -232 262 l-67 32 -730 2 c-564 1 -740 -1 -775 -11z m714
-185 c-5 -26 -5 -26 41 -23 43 4 46 6 41 27 -6 22 -3 23 34 21 50 -3 58 -11
35 -36 -19 -21 -16 -23 21 -21 12 1 29 -5 38 -14 14 -15 16 -15 16 -1 0 9 6
16 13 17 10 0 10 2 0 6 -7 2 -13 9 -13 14 0 12 33 7 75 -10 30 -12 30 -13 9
-29 -11 -9 -20 -19 -20 -22 0 -3 -6 -21 -14 -40 -7 -19 -12 -41 -11 -47 1 -7
-2 -13 -7 -13 -7 0 -52 -99 -52 -115 0 -2 9 -1 20 2 11 3 31 2 45 -1 20 -5 25
-13 25 -36 0 -20 5 -30 15 -30 10 0 15 -10 15 -34 0 -47 49 -65 70 -26 9 16 7
24 -5 37 -13 12 -16 30 -12 77 6 84 29 142 56 139 19 -3 21 1 15 37 l-7 40 40
0 c21 0 45 6 51 12 10 10 14 9 18 -7 3 -11 18 -28 35 -37 34 -20 37 -43 8 -59
l-21 -11 22 -23 22 -24 -21 -13 c-12 -7 -21 -22 -21 -33 0 -12 -11 -36 -25
-55 -14 -19 -25 -40 -25 -47 0 -7 17 -32 38 -56 21 -23 49 -61 62 -84 13 -24
42 -55 64 -69 23 -15 53 -38 68 -51 30 -28 48 -24 48 12 0 16 -21 47 -59 87
-68 74 -81 96 -81 138 0 51 16 70 59 70 39 0 59 -15 94 -72 18 -29 11 -37 -13
-15 -12 10 -12 9 -1 -5 7 -10 21 -18 30 -19 11 0 10 -3 -7 -11 -35 -17 -66 3
-81 52 -15 50 -44 53 -49 4 -3 -26 6 -39 53 -85 103 -100 123 -164 65 -212
-40 -34 -42 -92 -5 -127 22 -21 25 -31 25 -100 0 -63 -4 -82 -20 -103 -27 -33
-81 -49 -120 -35 -50 17 -37 58 23 73 30 8 47 31 47 64 0 14 -13 27 -38 40
-22 11 -53 36 -70 55 l-31 36 -30 -26 c-25 -20 -31 -34 -31 -64 0 -32 -8 -46
-55 -95 -49 -53 -59 -58 -105 -63 -45 -4 -50 -3 -50 16 0 11 16 33 36 49 94
75 94 75 88 142 -5 47 -3 66 10 85 9 14 16 27 16 29 0 2 -23 14 -51 27 -49 24
-52 24 -65 6 -7 -10 -16 -39 -20 -64 -4 -24 -15 -53 -25 -63 -16 -16 -19 -35
-19 -117 0 -143 12 -136 -259 -140 -119 -2 -230 -1 -248 3 -56 10 -63 25 -63
134 0 83 -3 100 -19 115 -10 9 -21 34 -25 54 -3 21 -11 45 -18 55 -12 16 -16
16 -61 -1 -36 -13 -45 -20 -40 -32 4 -8 8 -48 8 -89 l0 -74 60 -47 c37 -28 61
-56 63 -70 4 -22 1 -22 -47 -18 -45 5 -57 11 -106 59 -49 48 -55 59 -55 96 0
34 -6 46 -31 67 l-31 27 -32 -36 c-17 -20 -47 -44 -66 -54 -29 -15 -35 -24
-35 -52 0 -34 2 -36 75 -69 8 -4 16 -16 18 -28 5 -31 -54 -48 -101 -28 -50 21
-65 50 -69 133 -2 67 0 74 25 101 39 40 38 94 -3 129 -57 47 -38 113 60 207
50 49 67 82 56 111 -11 28 -33 15 -50 -30 -19 -49 -49 -66 -83 -46 -17 10 -17
10 2 11 11 1 15 4 8 7 -15 5 -2 33 36 76 28 31 80 37 105 11 19 -18 21 -76 5
-107 -7 -12 -38 -50 -70 -84 -46 -48 -59 -68 -59 -92 0 -39 11 -39 62 2 110
88 112 90 109 143 -1 28 5 66 14 87 18 43 20 108 4 124 -16 16 -4 42 26 53 32
12 32 23 0 44 -33 22 -32 42 5 65 16 10 27 21 23 25 -11 11 20 26 32 16 5 -4
26 -10 45 -12 34 -3 35 -4 33 -42 l-3 -39 40 6 c39 5 40 4 40 -26 0 -19 9 -41
25 -57 14 -15 31 -46 39 -71 13 -42 14 -43 15 -12 1 35 25 49 67 39 28 -7 28
-8 9 37 -19 46 -19 57 1 57 8 0 12 5 9 10 -5 8 -11 8 -20 0 -13 -11 -38 9 -33
26 1 5 -3 18 -9 29 -6 11 -13 29 -14 40 -2 11 -13 28 -24 37 -11 10 -17 17
-12 18 4 0 9 0 12 0 3 0 20 9 40 20 36 20 47 16 41 -17 -3 -11 0 -26 5 -34 7
-12 9 -11 9 2 0 30 60 41 61 12 0 -15 2 -15 9 2 5 13 3 26 -6 36 -8 8 -14 18
-14 22 0 7 28 14 62 14 24 0 26 -3 22 -26z m-518 -1166 c90 -53 112 -187 42
-262 -22 -24 -17 -43 13 -43 16 0 19 -7 19 -55 0 -60 -2 -61 -62 -44 -23 6
-49 24 -65 44 -17 21 -37 35 -50 35 -19 0 -22 -6 -25 -42 l-3 -43 -50 0 -50 0
-3 218 -2 217 96 0 c86 0 102 -3 140 -25z m364 -25 l0 -50 -70 0 -70 0 0 -35
0 -35 65 0 65 0 0 -50 0 -50 -65 0 -65 0 0 -30 c0 -29 0 -29 68 -32 l67 -3 0
-50 0 -50 -120 0 -120 0 -3 218 -2 217 125 0 125 0 0 -50z m285 0 l0 -45 -53
-6 c-87 -11 -122 -47 -122 -124 0 -24 9 -45 28 -66 23 -26 38 -32 87 -38 l60
-6 3 -48 c4 -59 -7 -65 -96 -49 -110 18 -176 85 -189 189 -16 139 83 246 222
241 l60 -3 0 -45z m133 -167 l-3 -218 -50 0 -50 0 -3 218 -2 217 55 0 55 0 -2
-217z m297 167 l0 -45 -72 -3 -73 -3 0 -34 0 -34 68 -3 67 -3 0 -45 0 -45 -67
-3 -67 -3 -3 -82 -3 -82 -47 -3 -48 -3 0 221 0 221 123 -3 122 -3 0 -45z m275
0 l0 -50 -70 0 -70 0 0 -35 0 -35 65 0 65 0 0 -50 0 -50 -65 0 -65 0 0 -30 0
-30 71 0 70 0 -3 -52 -3 -53 -120 0 -120 0 -3 218 -2 217 125 0 125 0 0 -50z
m-1506 -462 c14 -23 -3 -52 -33 -56 -11 -2 -21 -10 -21 -18 0 -8 -7 -14 -15
-14 -12 0 -15 13 -15 56 l0 55 36 -3 c22 -2 42 -10 48 -20z m163 14 c16 -10
14 -102 -4 -102 -7 0 -13 7 -13 15 0 8 -7 15 -15 15 -8 0 -15 -7 -15 -16 0 -9
-6 -14 -12 -12 -14 5 -23 70 -14 94 6 15 53 19 73 6z m183 -7 c0 -9 -10 -16
-27 -16 -24 -2 -25 -2 -5 -6 12 -2 22 -11 22 -18 0 -7 -10 -16 -22 -18 -20 -4
-19 -4 5 -6 17 0 27 -7 27 -16 0 -11 -11 -15 -40 -15 l-40 0 0 55 0 55 40 0
c29 0 40 -4 40 -15z m168 3 c-3 -7 -15 -15 -29 -18 l-24 -6 23 -6 c27 -7 29
-28 3 -28 -10 0 -21 -9 -24 -20 -11 -41 -27 -20 -27 35 l0 55 41 0 c28 0 39
-4 37 -12z m162 -3 c0 -9 -10 -16 -27 -16 -24 -2 -25 -2 -5 -6 12 -2 22 -11
22 -18 0 -7 -10 -16 -22 -18 -20 -4 -19 -4 5 -6 17 0 27 -7 27 -16 0 -11 -11
-15 -40 -15 l-40 0 0 55 0 55 40 0 c29 0 40 -4 40 -15z m110 -40 c0 -30 -4
-55 -10 -55 -5 0 -10 25 -10 55 0 30 5 55 10 55 6 0 10 -25 10 -55z m175 46
c3 -6 -1 -13 -9 -18 -8 -4 -16 -23 -18 -42 -5 -51 -28 -52 -28 -2 0 30 -4 41
-15 41 -8 0 -15 7 -15 15 0 11 11 15 39 15 22 0 42 -4 46 -9z m105 -15 c0 -35
10 -56 26 -56 10 0 14 12 14 40 0 29 4 40 15 40 11 0 15 -11 15 -43 0 -47 -13
-67 -45 -67 -12 0 -26 5 -33 12 -14 14 -16 98 -2 98 6 0 10 -11 10 -24z m238
12 c14 -18 10 -98 -4 -98 -7 0 -14 7 -18 15 -3 8 -10 15 -16 15 -5 0 -10 -7
-10 -15 0 -8 -7 -15 -15 -15 -12 0 -15 13 -15 55 l0 55 34 0 c18 0 38 -6 44
-12z m177 -30 c9 -24 19 -49 22 -55 3 -7 -2 -13 -11 -13 -9 0 -16 5 -16 10 0
6 -11 10 -25 10 -14 0 -25 -4 -25 -10 0 -5 -7 -10 -16 -10 -16 0 -15 12 12 77
19 45 38 42 59 -9z"/>
<path d="M1370 2016 c0 -8 -8 -17 -17 -19 -14 -4 -12 -5 5 -6 16 -1 22 5 22
19 0 11 -2 20 -5 20 -3 0 -5 -6 -5 -14z"/>
<path d="M1170 2008 c0 -12 7 -18 23 -17 15 0 17 2 7 6 -8 3 -18 11 -22 17 -5
7 -8 4 -8 -6z"/>
<path d="M840 1985 c1 -26 2 -28 11 -12 8 14 8 22 0 30 -8 8 -11 3 -11 -18z"/>
<path d="M1695 2000 c-3 -5 -1 -18 4 -27 9 -16 10 -14 11 10 0 28 -5 34 -15
17z"/>
<path d="M797 1980 c3 -11 9 -20 14 -20 5 0 9 9 9 20 0 11 -6 20 -14 20 -9 0
-12 -7 -9 -20z"/>
<path d="M1730 1980 c0 -11 4 -20 9 -20 5 0 11 9 14 20 3 13 0 20 -9 20 -8 0
-14 -9 -14 -20z"/>
<path d="M750 1976 c0 -7 7 -19 15 -26 16 -13 20 -3 9 24 -8 20 -24 21 -24 2z"/>
<path d="M1776 1974 c-11 -27 -7 -37 9 -24 16 14 20 40 6 40 -5 0 -12 -7 -15
-16z"/>
<path d="M1806 1949 c-11 -11 -15 -19 -10 -19 16 0 37 17 33 27 -2 6 -13 2
-23 -8z"/>
<path d="M720 1950 c0 -6 7 -13 15 -17 24 -9 27 1 5 15 -13 8 -20 8 -20 2z"/>
<path d="M1200 1950 c0 -5 7 -10 16 -10 8 0 12 5 9 10 -3 6 -10 10 -16 10 -5
0 -9 -4 -9 -10z"/>
<path d="M1260 1950 c0 -5 7 -10 15 -10 8 0 15 5 15 10 0 6 -7 10 -15 10 -8 0
-15 -4 -15 -10z"/>
<path d="M1325 1950 c-3 -5 1 -10 10 -10 9 0 13 5 10 10 -3 6 -8 10 -10 10 -2
0 -7 -4 -10 -10z"/>
<path d="M1136 1931 c-4 -5 3 -7 14 -4 23 6 26 13 6 13 -8 0 -17 -4 -20 -9z"/>
<path d="M1380 1936 c0 -2 9 -6 20 -9 11 -3 18 -1 14 4 -5 9 -34 13 -34 5z"/>
<path d="M1666 1923 c2 -7 -5 -17 -14 -22 -13 -8 -13 -10 -3 -11 12 0 12 -2
-1 -12 -9 -8 -18 -36 -21 -65 -5 -43 -3 -53 9 -53 9 0 14 7 13 18 -2 9 3 27 9
40 11 19 10 23 -3 28 -19 8 -20 24 -1 24 19 0 28 -28 16 -51 -11 -19 -6 -39 8
-39 4 0 12 10 17 23 10 22 55 37 55 18 0 -6 -9 -11 -19 -11 -11 0 -23 -9 -26
-20 -3 -11 -13 -20 -21 -20 -18 0 -18 -14 -1 -29 20 -16 97 45 97 77 0 32 17
62 36 62 8 0 12 5 8 11 -3 6 -14 9 -23 6 -10 -2 -26 2 -36 9 -10 8 -36 14 -56
14 -21 0 -39 3 -42 8 -2 4 -2 1 -1 -5z m48 -28 c11 -9 14 -15 7 -15 -7 0 -19
7 -27 15 -20 19 -5 19 20 0z m56 -15 c0 -5 -7 -7 -15 -4 -8 4 -15 8 -15 10 0
2 7 4 15 4 8 0 15 -4 15 -10z"/>
<path d="M798 1910 c-21 -11 -38 -26 -38 -34 0 -9 -8 -12 -24 -9 -13 3 -27 -1
-31 -8 -6 -9 -1 -11 18 -7 22 4 25 2 17 -12 -12 -23 -12 -210 0 -190 7 11 11
8 19 -13 11 -29 31 -28 31 1 0 14 3 13 18 -5 9 -12 40 -32 67 -44 28 -12 65
-35 83 -52 l32 -31 0 137 c0 148 -7 178 -54 234 -15 18 -25 36 -22 41 11 18
-80 11 -116 -8z m60 -10 c-9 -13 -24 -20 -44 -20 -24 0 -33 -5 -38 -22 -14
-53 -7 -75 32 -102 44 -30 55 -32 72 -11 10 12 8 16 -13 24 -13 5 -27 17 -30
25 -4 9 -16 16 -27 16 -11 0 -20 5 -20 11 0 20 55 5 65 -18 10 -25 35 -31 35
-10 0 7 -5 18 -11 24 -14 14 -2 53 17 53 8 0 12 5 9 10 -12 20 14 9 29 -11 10
-15 13 -37 10 -73 -9 -93 -11 -96 -47 -95 -29 1 -30 2 -8 8 25 7 42 31 21 31
-6 0 -21 -7 -33 -15 -20 -13 -26 -12 -68 15 -52 32 -59 47 -47 107 8 35 14 44
36 49 15 3 36 9 47 14 11 5 21 9 23 9 1 1 -3 -8 -10 -19z m35 -258 c4 10 7 11
18 1 7 -7 17 -13 22 -13 4 0 5 6 1 13 -4 6 0 5 9 -3 9 -8 19 -28 23 -45 l7
-30 -32 29 c-17 17 -31 24 -31 18 0 -18 -18 -14 -40 8 -26 26 -27 49 -1 26 15
-13 20 -14 24 -4z"/>
<path d="M902 1858 c-15 -15 -16 -45 -2 -53 6 -4 8 -15 5 -26 -4 -13 -2 -19 8
-19 10 0 14 13 13 49 -1 55 -7 66 -24 49z"/>
<path d="M1445 1920 c-3 -5 1 -10 10 -10 9 0 13 5 10 10 -3 6 -8 10 -10 10 -2
0 -7 -4 -10 -10z"/>
<path d="M1218 1883 c6 -2 18 -2 25 0 6 3 1 5 -13 5 -14 0 -19 -2 -12 -5z"/>
<path d="M1308 1883 c6 -2 18 -2 25 0 6 3 1 5 -13 5 -14 0 -19 -2 -12 -5z"/>
<path d="M1152 1817 c-31 -7 -41 -14 -37 -24 3 -8 5 -21 5 -29 0 -11 28 -14
155 -14 127 0 155 3 155 14 0 8 2 21 5 28 13 32 -183 49 -283 25z"/>
<path d="M1041 1801 c-23 -15 -5 -40 26 -38 21 2 28 8 28 22 0 22 -31 31 -54
16z"/>
<path d="M1454 1795 c-9 -21 4 -35 29 -31 12 3 25 5 30 5 14 2 7 29 -9 35 -26
10 -44 7 -50 -9z"/>
<path d="M568 1753 c7 -3 16 -2 19 1 4 3 -2 6 -13 5 -11 0 -14 -3 -6 -6z"/>
<path d="M1731 1740 c-28 -24 -54 -26 -71 -5 -7 8 -18 15 -24 14 -6 0 -1 -7
11 -15 l21 -15 -24 -42 c-13 -23 -23 -53 -23 -67 1 -23 2 -22 8 5 8 32 29 75
36 75 3 0 0 -12 -5 -26 -6 -14 -10 -35 -10 -47 0 -20 0 -20 15 -1 23 30 17 3
-10 -44 -29 -52 -94 -132 -106 -132 -5 0 -9 17 -9 39 0 31 -8 47 -41 85 -60
68 -117 98 -197 104 -81 5 -133 -8 -194 -48 -62 -41 -98 -95 -98 -148 0 -23
-3 -42 -7 -42 -5 1 -24 24 -44 53 -27 39 -52 60 -98 83 -43 22 -61 27 -61 18
0 -20 -14 -17 -34 5 -17 19 -18 19 -56 -19 -20 -20 -62 -55 -91 -77 -77 -57
-81 -63 -77 -132 2 -54 0 -63 -25 -89 -25 -26 -38 -60 -19 -48 5 3 8 -27 8
-67 -1 -69 0 -72 27 -85 28 -13 87 -8 87 8 0 4 -12 11 -27 15 -42 10 -63 34
-63 72 0 35 19 59 87 109 19 15 35 41 46 76 9 30 26 63 38 73 20 19 20 19 10
-9 -15 -37 -14 -38 10 -26 11 7 43 18 70 26 48 14 60 26 39 39 -12 7 -13 75
-1 93 6 10 12 5 21 -18 7 -16 30 -44 52 -61 42 -34 62 -66 72 -118 7 -40 22
-61 43 -61 12 0 14 9 9 45 l-7 45 255 0 c152 0 256 -4 256 -9 0 -5 -5 -22 -10
-37 -12 -31 -2 -48 24 -38 10 4 23 30 33 66 17 61 49 97 124 143 18 11 44 35
56 54 20 29 23 31 23 13 0 -12 -17 -41 -37 -64 -21 -22 -33 -43 -28 -45 6 -2
34 -19 63 -37 78 -52 76 -51 69 -33 -22 54 -22 53 2 33 12 -11 28 -43 37 -72
15 -52 29 -68 98 -117 55 -38 40 -128 -24 -142 -38 -8 -39 -22 -1 -30 19 -4
41 0 62 10 l32 17 -5 69 c-3 38 -1 66 3 63 20 -12 7 21 -21 52 -26 31 -29 38
-23 84 7 62 -6 84 -87 141 -40 28 -69 57 -82 84 -11 22 -36 57 -55 79 -27 29
-34 45 -31 67 3 16 4 29 4 29 -1 -1 -12 -10 -25 -20z m-334 -103 c42 -22 100
-73 115 -101 6 -11 -14 2 -45 30 -64 59 -127 85 -201 83 -51 -2 -51 -2 14 -9
36 -4 81 -14 101 -22 38 -16 109 -74 109 -89 0 -4 -97 -8 -215 -8 -118 0 -215
4 -215 8 0 17 78 79 114 91 21 7 35 14 33 17 -12 11 -95 -37 -134 -78 -24 -24
-43 -39 -43 -33 0 9 55 65 92 93 58 43 208 53 275 18z m-101 -157 c8 0 14 -4
14 -10 0 -5 -7 -10 -15 -10 -10 0 -16 -11 -17 -32 l-1 -33 -4 33 c-3 19 -10
32 -19 32 -8 0 -14 5 -14 10 0 6 7 10 15 10 8 0 15 6 16 13 0 10 2 10 6 0 2
-7 11 -13 19 -13z"/>
<path d="M1215 1621 c-44 -11 -87 -36 -115 -66 -21 -23 -17 -22 22 7 94 72
210 72 306 2 l47 -35 -39 36 c-59 53 -144 74 -221 56z"/>
<path d="M1253 1574 c-3 -8 -1 -20 5 -26 15 -15 43 8 35 28 -7 19 -32 18 -40
-2z"/>
<path d="M1925 1750 c-3 -6 1 -7 9 -4 18 7 21 14 7 14 -6 0 -13 -4 -16 -10z"/>
<path d="M1960 1756 c0 -2 9 -6 20 -9 11 -3 18 -1 14 4 -5 9 -34 13 -34 5z"/>
<path d="M631 1687 c-1 -10 -27 -46 -59 -80 -32 -34 -66 -73 -75 -87 -22 -32
-22 -73 1 -93 29 -26 38 -20 13 7 -20 22 -22 28 -12 58 6 19 34 56 62 83 54
53 83 99 75 118 -2 7 -5 4 -5 -6z"/>
<path d="M1560 1620 c0 -27 5 -43 15 -47 20 -7 21 -6 30 45 6 40 6 42 -19 42
-24 0 -26 -4 -26 -40z"/>
<path d="M1920 1656 c0 -4 29 -38 65 -76 54 -57 65 -75 65 -103 0 -19 -7 -40
-15 -47 -9 -7 -13 -15 -10 -18 3 -3 14 3 25 13 25 23 26 59 1 99 -20 32 -131
144 -131 132z"/>
<path d="M1560 1524 c0 -38 14 -44 30 -15 15 28 13 38 -10 44 -17 4 -20 0 -20
-29z"/>
<path d="M1670 1452 c0 -4 30 -23 68 -41 78 -38 72 -28 -10 17 -32 18 -58 29
-58 24z"/>
<path d="M850 1411 c-8 -5 -38 -14 -67 -21 -29 -6 -57 -17 -63 -24 -10 -13
144 35 157 48 9 9 -9 7 -27 -3z"/>
<path d="M1150 1350 c0 -5 7 -10 15 -10 8 0 15 5 15 10 0 6 -7 10 -15 10 -8 0
-15 -4 -15 -10z"/>
<path d="M743 1343 c-28 -5 -29 -11 -2 -40 14 -14 24 -40 27 -72 4 -42 11 -55
51 -95 27 -27 59 -48 79 -52 48 -10 40 11 -22 52 -62 41 -81 77 -72 130 7 34
-13 86 -32 83 -4 -1 -17 -4 -29 -6z"/>
<path d="M1756 1335 c-11 -12 -16 -34 -16 -80 0 -63 -1 -64 -41 -97 -22 -18
-53 -43 -67 -56 l-27 -24 39 6 c30 4 52 17 88 53 41 40 48 53 48 86 0 41 14
75 39 94 19 14 15 19 -20 28 -18 4 -31 1 -43 -10z"/>
<path d="M1158 1323 c6 -2 18 -2 25 0 6 3 1 5 -13 5 -14 0 -19 -2 -12 -5z"/>
<path d="M1150 1280 c0 -23 4 -30 20 -30 16 0 20 7 20 30 0 23 -4 30 -20 30
-16 0 -20 -7 -20 -30z"/>
<path d="M1140 1230 c0 -5 14 -10 30 -10 17 0 30 5 30 10 0 6 -13 10 -30 10
-16 0 -30 -4 -30 -10z"/>
<path d="M1350 1230 c0 -5 18 -10 40 -10 22 0 40 5 40 10 0 6 -18 10 -40 10
-22 0 -40 -4 -40 -10z"/>
<path d="M1120 1196 c0 -9 -7 -12 -19 -9 -23 6 -39 -16 -20 -27 7 -5 20 -5 28
-1 19 10 112 8 128 -2 6 -4 14 -3 18 3 3 5 -3 10 -14 10 -14 0 -21 6 -21 20 0
17 -7 20 -50 20 -36 0 -50 -4 -50 -14z"/>
<path d="M1343 1190 c-4 -14 -14 -20 -32 -20 -19 0 -22 -3 -12 -9 9 -6 22 -6
33 0 12 6 24 6 35 0 11 -6 24 -6 35 0 12 6 25 6 36 0 11 -6 24 -6 33 0 11 7 9
9 -7 9 -13 0 -24 8 -27 20 -4 16 -14 20 -47 20 -33 0 -43 -4 -47 -20z"/>
<path d="M1015 1160 c3 -5 12 -7 20 -3 21 7 19 13 -6 13 -11 0 -18 -4 -14 -10z"/>
<path d="M1510 1166 c0 -2 7 -6 15 -10 8 -3 15 -1 15 4 0 6 -7 10 -15 10 -8 0
-15 -2 -15 -4z"/>
<path d="M1143 1137 c16 -5 38 -5 54 0 22 8 18 9 -27 9 -45 0 -49 -1 -27 -9z"/>
<path d="M1245 1140 c-13 -5 -14 -9 -5 -9 8 0 24 4 35 9 13 5 14 9 5 9 -8 0
-24 -4 -35 -9z"/>
<path d="M1495 1140 c11 -5 27 -9 35 -9 9 0 8 4 -5 9 -11 5 -27 9 -35 9 -9 0
-8 -4 5 -9z"/>
<path d="M1018 1133 c7 -3 16 -2 19 1 4 3 -2 6 -13 5 -11 0 -14 -3 -6 -6z"/>
<path d="M1088 1133 c7 -3 16 -2 19 1 4 3 -2 6 -13 5 -11 0 -14 -3 -6 -6z"/>
<path d="M1308 1133 c7 -3 16 -2 19 1 4 3 -2 6 -13 5 -11 0 -14 -3 -6 -6z"/>
<path d="M1378 1133 c7 -3 16 -2 19 1 4 3 -2 6 -13 5 -11 0 -14 -3 -6 -6z"/>
<path d="M1448 1133 c7 -3 16 -2 19 1 4 3 -2 6 -13 5 -11 0 -14 -3 -6 -6z"/>
<path d="M1025 1110 c-25 -11 1 -11 35 0 20 6 21 8 5 8 -11 0 -29 -3 -40 -8z"/>
<path d="M1100 1110 c-11 -8 -7 -9 15 -4 37 8 45 14 19 14 -10 0 -26 -5 -34
-10z"/>
<path d="M1198 1113 c7 -3 16 -2 19 1 4 3 -2 6 -13 5 -11 0 -14 -3 -6 -6z"/>
<path d="M1261 1116 c2 -2 18 -6 34 -10 22 -5 26 -4 15 4 -14 9 -59 15 -49 6z"/>
<path d="M1338 1113 c6 -2 18 -2 25 0 6 3 1 5 -13 5 -14 0 -19 -2 -12 -5z"/>
<path d="M1390 1110 c-11 -8 -7 -9 15 -4 37 8 45 14 19 14 -10 0 -26 -5 -34
-10z"/>
<path d="M1460 1110 c-11 -8 -7 -9 15 -4 37 8 45 14 19 14 -10 0 -26 -5 -34
-10z"/>
<path d="M1154 1078 c9 -5 23 -5 32 0 12 6 7 9 -16 9 -23 0 -28 -3 -16 -9z"/>
<path d="M1220 1080 c8 -5 20 -10 25 -10 6 0 3 5 -5 10 -8 5 -19 10 -25 10 -5
0 -3 -5 5 -10z"/>
<path d="M1460 1080 c-9 -6 -10 -10 -3 -10 6 0 15 5 18 10 8 12 4 12 -15 0z"/>
<path d="M1045 1060 c-4 -6 6 -10 22 -10 22 0 25 2 13 10 -19 12 -27 12 -35 0z"/>
<path d="M1110 1060 c-11 -7 -6 -10 20 -10 26 0 31 3 20 10 -8 5 -17 10 -20
10 -3 0 -12 -5 -20 -10z"/>
<path d="M1190 1060 c-12 -8 -9 -10 13 -10 16 0 26 4 22 10 -8 12 -16 12 -35
0z"/>
<path d="M1260 1060 c-11 -7 -6 -10 20 -10 26 0 31 3 20 10 -8 5 -17 10 -20
10 -3 0 -12 -5 -20 -10z"/>
<path d="M1330 1060 c-11 -7 -6 -10 20 -10 26 0 31 3 20 10 -8 5 -17 10 -20
10 -3 0 -12 -5 -20 -10z"/>
<path d="M1400 1060 c-11 -7 -6 -10 20 -10 26 0 31 3 20 10 -8 5 -17 10 -20
10 -3 0 -12 -5 -20 -10z"/>
<path d="M1470 1060 c-12 -8 -11 -10 8 -10 12 0 22 5 22 10 0 13 -11 13 -30 0z"/>
<path d="M590 785 c0 -64 0 -65 28 -65 43 0 72 26 72 64 0 41 -26 66 -68 66
l-32 0 0 -65z"/>
<path d="M510 430 c0 -5 7 -10 15 -10 8 0 15 5 15 10 0 6 -7 10 -15 10 -8 0
-15 -4 -15 -10z"/>
<path d="M680 430 c0 -5 7 -10 15 -10 8 0 15 5 15 10 0 6 -7 10 -15 10 -8 0
-15 -4 -15 -10z"/>
<path d="M1820 430 c0 -5 7 -10 15 -10 8 0 15 5 15 10 0 6 -7 10 -15 10 -8 0
-15 -4 -15 -10z"/>
</g>
</svg>
